<?xml version="1.0" standalone="no"?>
<!DOCTYPE svg PUBLIC "-//W3C//DTD SVG 1.1//EN" "http://www.w3.org/Graphics/SVG/1.1/DTD/svg11.dtd" >
<svg xmlns="http://www.w3.org/2000/svg">
<metadata>
Created by FontForge 20120731 at Thu Jul 21 15:22:26 2016
 By admin
</metadata>
<defs>
<font id="iconfont" horiz-adv-x="1024" >
  <font-face 
    font-family="iconfont"
    font-weight="500"
    font-stretch="normal"
    units-per-em="1024"
    panose-1="2 0 6 3 0 0 0 0 0 0"
    ascent="896"
    descent="-128"
    x-height="792"
    bbox="0 -212 1024.02 896"
    underline-thickness="50"
    underline-position="-100"
    unicode-range="U+0078-E61C"
  />
<missing-glyph horiz-adv-x="374" 
d="M34 0v682h272v-682h-272zM68 34h204v614h-204v-614z" />
    <glyph glyph-name=".notdef" horiz-adv-x="374" 
d="M34 0v682h272v-682h-272zM68 34h204v614h-204v-614z" />
    <glyph glyph-name=".null" horiz-adv-x="0" 
 />
    <glyph glyph-name="nonmarkingreturn" horiz-adv-x="341" 
 />
    <glyph glyph-name="x" unicode="x" horiz-adv-x="1001" 
d="M281 543q-27 -1 -53 -1h-83q-18 0 -36.5 -6t-32.5 -18.5t-23 -32t-9 -45.5v-76h912v41q0 16 -0.5 30t-0.5 18q0 13 -5 29t-17 29.5t-31.5 22.5t-49.5 9h-133v-97h-438v97zM955 310v-52q0 -23 0.5 -52t0.5 -58t-10.5 -47.5t-26 -30t-33 -16t-31.5 -4.5q-14 -1 -29.5 -0.5
t-29.5 0.5h-32l-45 128h-439l-44 -128h-29h-34q-20 0 -45 1q-25 0 -41 9.5t-25.5 23t-13.5 29.5t-4 30v167h911zM163 247q-12 0 -21 -8.5t-9 -21.5t9 -21.5t21 -8.5q13 0 22 8.5t9 21.5t-9 21.5t-22 8.5zM316 123q-8 -26 -14 -48q-5 -19 -10.5 -37t-7.5 -25t-3 -15t1 -14.5
t9.5 -10.5t21.5 -4h37h67h81h80h64h36q23 0 34 12t2 38q-5 13 -9.5 30.5t-9.5 34.5q-5 19 -11 39h-368zM336 498v228q0 11 2.5 23t10 21.5t20.5 15.5t34 6h188q31 0 51.5 -14.5t20.5 -52.5v-227h-327z" />
    <glyph glyph-name="uniE600" unicode="&#xe600;" 
d="M704 -88q-26 1 -70 0.5t-71 0.5h-21v86q-1 10 3.5 14t14.5 5q110 14 188 103t76 198q0 15 -8.5 24.5t-21.5 9.5q-12 0 -21 -8.5t-10 -23.5l-1 -14t-3 -21q-13 -86 -72.5 -142.5t-147.5 -67.5q-80 -9 -150 30.5t-105 112.5q-17 36 -24 106q-1 13 -10 21t-22 7
q-12 -1 -20 -9.5t-8 -22.5q0 -23 3 -45q16 -103 91.5 -175t172.5 -84q4 -1 8.5 -5.5t4.5 -7.5q1 -15 1 -92h-163q-17 0 -26.5 -8t-9.5 -22t9.5 -22t26.5 -8h387q17 0 27 8t10 22t-10 22t-28 8zM646 705q-26 27 -74.5 37t-95 4t-72.5 -24q-71 -51 -73 -134h367q-3 67 -52 117
zM415 139q17 -9 39 -14t36 -5.5t42 0.5q70 1 115.5 44.5t49.5 113.5h-367q4 -93 85 -139zM696 554h-365v-59h365v59zM697 464h-364v-59h364v59zM693 313v60h-313q-43 0 -49.5 -7.5t-0.5 -52.5h363z" />
    <glyph glyph-name="uniE601" unicode="&#xe601;" 
d="M954 54l-4 6l-9 11q-11 13 -39 36q-41 34 -74 56l-46 29l-20 10q-15 8 -34 1q-14 -5 -21 -17l-18 -26q-3 -5 -5 -10q-3 -5 -11.5 -22t-14.5 -27q-12 -21 -34 -30.5t-50 2.5q-96 54 -161 116q-95 90 -127 162q-8 12 -1.5 35t25.5 32q12 6 32 14t30 14q6 4 13.5 8t17.5 11
l3 3q4 2 4 3q2 1 3 2q18 17 9 41l-3 7q-13 31 -34 65q-16 28 -39 58q-14 20 -30 34.5t-24 18.5l-8 5q-9 4 -13 6q-22 10 -46 -1q-15 -5 -29.5 -14t-20.5 -14t-25 -20q-42 -35 -65.5 -77.5t-18.5 -81.5q10 -67 83.5 -186.5t171 -212.5t223.5 -162.5t196 -78.5q75 -9 160 69
q36 33 52 68q6 13 7.5 28t-5.5 29z" />
    <glyph glyph-name="uniE602" unicode="&#xe602;" 
d="M475 705l-396 -396q-14 -14 -14 -33.5t14 -34t34 -14t34 14.5l365 365l365 -366q14 -14 34 -14t34 14t14 34t-14 34l-396 396q-15 15 -37 13q-22 2 -37 -13zM512 372q-22 2 -37 -13l-396 -396q-14 -14 -14 -33.5t14 -33.5t34 -14t34 13l365 366l365 -366q14 -14 34 -14
t34 14t14 34t-14 34l-396 396q-15 15 -37 13zM512 372z" />
    <glyph glyph-name="uniE603" unicode="&#xe603;" 
d="M241 473q0 48 34 81.5t82 33.5t81.5 -33.5t33.5 -81.5t-33.5 -81.5t-81.5 -33.5t-82 33.5t-34 81.5zM966 680v-760q0 -30 -22 -52t-52 -22h-760q-30 0 -52 22t-22 52v760q0 30 22 52t52 22h760q30 0 52 -22t22 -52zM890 678h-756v-696l196 256q9 12 24 13.5t27 -7.5
l148 -132l294 385q10 11 24.5 12.5t26.5 -7.5l16 -14v190z" />
    <glyph glyph-name="uniE604" unicode="&#xe604;" 
d="M618 528l-209 -360h418zM303 346l-103 -181h209zM303 346l-103 -181h209zM618 528l-209 -360h418zM303 346l-103 -181h209zM618 528l-209 -360h418zM618 528l-209 -360h418zM303 346l-103 -181h209zM303 346l-103 -181h209zM618 528l-209 -360h418zM618 528l-209 -360
h418zM200 168h209l-103 182zM851 709h-675q-43 0 -71 -29t-28 -73v-641q0 -41 29 -70t70 -29h675q41 0 70.5 29t29.5 70v641q0 43 -29 72.5t-71 29.5zM886 106h-748v542h751v-542h-3zM618 528l-209 -360h418zM303 346l-103 -181h209zM303 346l-103 -181h209zM618 528
l-209 -360h418zM618 528l-209 -360h418zM303 346l-103 -181h209z" />
    <glyph glyph-name="uniE605" unicode="&#xe605;" 
d="M122 -161h725q29 0 49.5 20.5t20.5 50.5v584h-38v-584q0 -14 -9.5 -23t-22.5 -9h-725q-14 0 -23 9t-9 23v725q0 13 9 22.5t23 9.5h614v38h-614q-30 0 -50.5 -20.5t-20.5 -49.5v-725q0 -30 20.5 -50.5t50.5 -20.5zM395 273q13 -9 25 -21l45 -45q12 -11 21 -24l47 47
l350 347l-34 34l-23 22l-34 34l-350 -347zM871 633l34 -34l34 34l23 22q9 10 9 23t-9 22l-45 45q-10 9 -23 9t-23 -9l-22 -22l-34 -34l34 -34zM378 247q-8 -19 -16 -42l-28 -82h1l82 27q24 8 42 16q-7 10 -17 19l-45 45q-10 10 -19 17z" />
    <glyph glyph-name="uniE606" unicode="&#xe606;" 
d="M512 812q-100 0 -185 -50.5t-134 -137.5t-49 -189q0 -57 35 -144t91.5 -181.5t102.5 -163.5t94 -135q17 -23 45 -23t45 23q48 66 94 135t102.5 163.5t91.5 181.5t35 144q0 102 -49 189t-134 137.5t-185 50.5v0zM535 -66q-8 -12 -23 -12t-23 12q-118 167 -185.5 298
t-67.5 193q0 117 81 200t195 83t195 -83t81 -200q0 -62 -67.5 -193t-185.5 -298v0zM521 310q-53 0 -90.5 38t-37.5 91.5t37.5 91.5t90.5 38t90.5 -38t37.5 -91.5t-37.5 -91.5t-90.5 -38v0z" />
    <glyph glyph-name="uniE607" unicode="&#xe607;" 
d="M896 -148h-58q1 2 1 4v6v4q0 88 -43.5 163t-119 118t-164.5 43t-164.5 -43t-119 -118t-43.5 -163v-8v-6h-57q0 120 68 217t177 139q-70 38 -111.5 106t-41.5 150q0 120 85.5 205t206.5 85t206.5 -85t85.5 -205q0 -82 -42 -150t-111 -106q109 -42 177 -139t68 -217z
M742 464q0 95 -67.5 162t-162.5 67t-162.5 -67t-67.5 -162t67.5 -162.5t162.5 -67.5t162.5 67.5t67.5 162.5z" />
    <glyph glyph-name="uniE608" unicode="&#xe608;" 
d="M721 684h-418q-30 0 -51.5 -21t-21.5 -52v-623q0 -30 21.5 -51.5t51.5 -21.5h419q30 0 51.5 21t21.5 52v623q-1 31 -22.5 52t-51.5 21zM768 -11q0 -19 -14 -33t-33 -14h-418q-19 0 -33 14t-14 33v622q0 19 14 33t33 14h419q19 0 33 -14t14 -33v-622h-1zM673 287h-321
q-5 0 -9 -3.5t-4 -9.5q0 -5 3.5 -8.5t9.5 -3.5h321q5 0 9 3.5t4 8.5q0 13 -13 13zM673 224h-321q-5 0 -9 -3.5t-4 -8.5q0 -13 13 -13h321q5 0 9 3.5t4 9.5q0 12 -13 12zM673 163h-321q-5 0 -9 -3.5t-4 -9.5q0 -13 13 -13h321q5 0 9 4t4 9q0 13 -13 13zM673 38h-144
q-5 0 -9 -4t-4 -9t3.5 -9t9.5 -4h144q5 0 9 3.5t4 9.5q0 13 -13 13zM401 391v-12q0 -14 10 -24t24 -10h5q15 0 25 10t10 24v4h77v-4q0 -14 10 -24t24 -10h5q15 0 25 10t10 24v13q10 10 10 24v57q0 17 -15 28l-31 77q-4 7 -11 7h-134q-9 0 -11 -7l-31 -77q-15 -11 -15 -28
v-57q0 -14 13 -25z" />
    <glyph glyph-name="uniE609" unicode="&#xe609;" 
d="M916 67h-77v75h39v74h-727v-74h38v-75h-76q-16 0 -27.5 11t-11.5 27v372q0 18 48 35t146.5 28t226.5 11h38q78 0 146 -4t117.5 -11.5t85.5 -16.5t54 -20t18 -22v-372q0 -16 -11 -27t-27 -11zM820 440q-23 0 -40 -16.5t-17 -39.5t17 -39.5t40.5 -16.5t40.5 16.5t17 39.5
t-17 39.5t-41 16.5zM227 775q0 15 11.5 26t27.5 11h497q16 0 27 -11t11 -26v-186h-574v186zM801 -156q0 -16 -11 -26.5t-27 -10.5h-497q-16 0 -27.5 10.5t-11.5 26.5v335h574v-335zM725 142h-421v-37h421v37zM725 67h-421v-37h421v37zM725 -7h-421v-37h421v37zM725 -82h-421
v-37h421v37z" />
    <glyph glyph-name="uniE60A" unicode="&#xe60a;" 
d="M226 651h572q9 0 15.5 6.5t6.5 15.5t-6.5 15.5t-15.5 6.5h-572q-9 0 -15.5 -6.5t-6.5 -15.5t6.5 -15.5t15.5 -6.5zM952 519h-880q-18 0 -31 -13t-13 -31v-529q0 -18 13 -31t31 -13h880q18 0 31 13t13 31v529q0 18 -13 31t-31 13zM952 -54h-880v529h880v-529zM138 563h748
q9 0 15.5 6.5t6.5 15.5t-6.5 15.5t-15.5 6.5h-748q-9 0 -15.5 -6.5t-6.5 -15.5t6.5 -15.5t15.5 -6.5z" />
    <glyph glyph-name="uniE60B" unicode="&#xe60b;" 
d="M274 244q-4 0 -6 2q-3 0 -8 0.5t-8 0.5q-31 3 -47 6q-24 6 -40 27.5t-6 68.5q6 28 25 39q23 11 50 1q48 -16 104 -43q13 -7 23.5 -25.5t4.5 -32.5q-9 -26 -43 -37q-21 -5 -45 -5q-2 -2 -4 -2zM211 342q0 -1 -0.5 -2t-0.5 -2q-4 -15 -2.5 -23t3.5 -9.5t5 -2.5q14 -2 40 -5
q3 0 9.5 -0.5t8.5 -0.5q24 0 36 3q1 0 2 1q-48 24 -94 39q-3 2 -7 2zM737 246h-2q-4 0 -10 0.5t-8 0.5q-33 3 -40 5q-15 4 -25.5 15.5t-12.5 26.5q-4 31 24 45q58 30 125 51q21 8 40 -5q21 -15 23 -47v-9q2 -7 0.5 -18.5t-4 -22t-12.5 -20t-26 -13.5q-27 -6 -50 -8
q-3 0 -8.5 -0.5t-8.5 -0.5h-5zM699 300q6 -2 22 -2q11 0 16 -1q3 0 8 0.5t8 0.5q28 3 42 7q2 1 4 1q1 2 1 9t-1 11v11v3q-47 -15 -100 -40zM888 -9h-80q-27 0 -46.5 19t-19.5 46v39h-477v-39q0 -27 -19 -46t-46 -19h-81q-27 0 -46 19t-19 46v176v4l28 177q-25 3 -42 21.5
t-17 42.5v12q0 27 19 46t46 19h64q23 57 39 87q60 114 129 114h364q69 0 129 -114q19 -35 38 -87h64q27 0 46 -19t19 -46v-12q0 -24 -16.5 -43t-40.5 -21l28 -177v-4v-176q1 -27 -17.5 -46t-45.5 -19zM239 146h529q11 0 18.5 -7.5t7.5 -18.5v-64q0 -5 4 -9.5t10 -4.5h80
q6 0 10 4.5t4 9.5v173l-33 205q-2 12 7 20q8 9 19 9h23q6 0 10 4.5t4 9.5v12q0 6 -4 10t-10 4h-82q-18 0 -24 18q-22 66 -58 124t-68 58h-365q-31 0 -67.5 -58t-57.5 -124q-7 -18 -24 -18h-82q-6 0 -10 -4t-4 -10v-12q0 -5 4 -9.5t10 -4.5h23q10 0 19 -9q6 -6 6 -20
l-33 -205v-173q0 -5 4 -9.5t10 -4.5h81q5 0 9.5 4.5t4.5 9.5v64q0 11 7.5 18.5t17.5 7.5zM727 485h-447q-14 0 -20 12q-9 10 -3 23q54 143 123 143h250q69 0 123 -143q4 -12 -3 -23q-10 -12 -23 -12zM317 536h372q-17 36 -33 56t-28 20h-249q-11 -1 -28 -21t-34 -55z" />
    <glyph glyph-name="uniE60C" unicode="&#xe60c;" 
d="M305 133h419v469h-52q0 -21 -15.5 -36.5t-37.5 -15.5h-210q-21 0 -36.5 15.5t-15.5 36.5h-52v-469zM474 403l40 102l41 -102h123l-82 -81l20 -122l-102 61l-102 -61l21 122l-82 81h123zM829 759h-105v-105h53v-573h-525v573h53v105h-105q-22 0 -37.5 -15.5t-15.5 -36.5
v-678q0 -22 15.5 -37t37.5 -15h629q22 0 37.5 15t15.5 37v678q0 21 -15.5 36.5t-37.5 15.5zM409 602h210q22 0 37.5 15.5t15.5 36.5v105h-105v52h-105v-52h-105v-105q0 -21 15.5 -36.5t36.5 -15.5zM462 707h105v-53h-105v53z" />
    <glyph glyph-name="uniE60D" unicode="&#xe60d;" 
d="M523.5 856q-99.5 0 -190 -39t-156 -104.5t-104.5 -156t-39 -190.5q0 -157 91 -284q5 -8 14.5 -9.5t17 4t9 14.5t-4.5 17q-82 116 -82 258q0 91 35 173.5t94.5 142t142 95t173 35.5t173 -35.5t142 -95t95 -142t35.5 -173t-35.5 -173t-95 -142t-142 -95t-172.5 -35.5
q-140 0 -254 80q-8 5 -17 3.5t-14.5 -9t-4 -16.5t9.5 -15q126 -87 280 -87q99 0 190 38.5t156.5 104t104 156.5t38.5 190.5t-38.5 190t-104 156t-156.5 104.5t-190.5 39zM488 684v-312v-44h45h267v44h-267v312h-45z" />
    <glyph glyph-name="uniE60E" unicode="&#xe60e;" 
d="M544 22l367 374q12 12 12 29t-12 29t-28.5 12t-27.5 -12l-342 -348l-342 348q-11 12 -27.5 12t-28.5 -12t-12 -29t12 -29l367 -374q13 -12 31 -11q18 -1 31 11v0zM513 304q18 -1 31 11l367 374q12 12 12 29t-12 29t-28.5 11.5t-27.5 -11.5l-342 -348l-342 348
q-12 11 -28 11.5t-28 -11.5t-12 -29t12 -29l367 -374q13 -12 31 -11zM513 304z" />
    <glyph glyph-name="uniE60F" unicode="&#xe60f;" horiz-adv-x="1039" 
d="M939 33q-9 -37 -39 -61.5t-68 -24.5q-36 0 -64.5 21t-40.5 55h-430q-12 -34 -40.5 -55t-64.5 -21q-38 0 -68 24.5t-39 61.5q-41 17 -64 55.5t-20 84.5l11 144q3 42 28 77.5t64 53.5l46 224q13 61 65.5 105t113.5 44h366q61 0 113.5 -44t65.5 -105l46 -224
q39 -18 64 -53.5t28 -77.5l11 -144q3 -46 -20 -84.5t-64 -55.5zM950 312q-2 28 -21 51t-46 31q-20 6 -22 27q0 2 -1 6v2l-47 230q-9 39 -43.5 68t-74.5 29h-366q-40 0 -74.5 -29t-43.5 -68l-47 -230l-1 -2v-6q-2 -21 -22 -27q-28 -8 -46.5 -31t-20.5 -51l-10 -144
q-2 -28 13.5 -50.5t42.5 -28.5q10 -3 16.5 -11t7.5 -19q1 -20 15 -33.5t33 -13.5t33 13t16 32q1 13 10 21.5t21 8.5h480q12 0 21 -8.5t10 -21.5q2 -19 16 -32t33 -13t33 13.5t15 33.5q1 11 7.5 19t16.5 11q27 6 42.5 28.5t13.5 50.5zM840 185q-20 -21 -49.5 -21t-50 21
t-20.5 51t20.5 51t50 21t50 -21t20.5 -51t-21 -51zM780 430q-9 -12 -27 -12h-482q-18 0 -28 12t-7 30v1v1l38 169q4 20 20.5 34.5t36.5 14.5h362q20 0 36.5 -14.5t20.5 -34.5l37 -169q1 0 1 -2q3 -18 -8 -30zM689 616h-354l-30 -134h414zM284 185q-21 -21 -50.5 -21t-50 21
t-20.5 51t20.5 51t50 21t50 -21t20.5 -51t-20 -51z" />
    <glyph glyph-name="uniE610" unicode="&#xe610;" 
d="M512.5 166q69.5 0 118.5 50t49 122v238q0 71 -49 121.5t-118.5 50.5t-119 -50.5t-49.5 -121.5v-238q0 -72 49.5 -122t119 -50zM756.5 405q-14.5 0 -25 -10t-10.5 -24v-46q0 -84 -61.5 -143t-147.5 -59t-147.5 59t-61.5 143v46q0 14 -10.5 24t-25 10t-25 -10t-10.5 -24
v-46q0 -104 71 -182t175 -89v-157h-89q-45 0 -45 -22.5t45 -22.5h246q45 0 45 22.5t-45 22.5h-89v157q102 14 174 92t72 179v46q0 14 -10.5 24t-25 10z" />
    <glyph glyph-name="uniE611" unicode="&#xe611;" 
d="M941 768h-862q-13 0 -22 -9t-9 -22v-677q0 -13 9 -22t22 -9h862q13 0 22 9t9 22v677q0 13 -9 22t-22 9zM941 336q-14 2 -27 13v-4q-109 89 -224 89q-32 0 -64.5 -10.5t-70 -33.5t-61 -40t-66.5 -51q-44 -34 -67.5 -51t-57 -34.5t-55.5 -17.5q-72 0 -142 67l-27 4v442
q0 11 8.5 19.5t20.5 8.5h804q12 0 20.5 -8.5t8.5 -19.5v-373zM279 629q-32 0 -54.5 -22.5t-22.5 -54.5t22.5 -54.5t54.5 -22.5t54.5 22.5t22.5 54.5t-22.5 54.5t-54.5 22.5z" />
    <glyph glyph-name="uniE612" unicode="&#xe612;" 
d="M635 332l-134 121q-15 13 -35 12t-33 -16t-12 -35t16 -33l-11 -81l12 -79q-16 -13 -17.5 -33t11.5 -35q14 -18 37 -18q17 0 31 12l134 112q17 15 17.5 37t-16.5 36zM512 748q-91 0 -174 -35.5t-143 -95.5t-95.5 -143t-35.5 -174t35.5 -173.5t95.5 -142.5t143 -95.5
t174 -35.5t173.5 35.5t142.5 95.5t95.5 142.5t35.5 173.5t-35.5 174t-95.5 143t-142.5 95.5t-173.5 35.5zM512 -51q-95 0 -176 47t-128 128t-47 176t47 176t128 128t176 47t176 -47t128 -128t47 -176t-47 -176t-128 -128t-176 -47z" />
    <glyph glyph-name="uniE613" unicode="&#xe613;" 
d="M512 812q-104 0 -199 -40.5t-163.5 -109t-109 -163.5t-40.5 -199t40.5 -199t109 -163.5t163.5 -109t199 -40.5t199 40.5t163.5 109t109 163.5t40.5 199t-40.5 199t-109 163.5t-163.5 109t-199 40.5zM512 -148q-91 0 -174 35.5t-143 95.5t-95.5 143t-35.5 174t35.5 174
t95.5 143t143 95.5t174 35.5t174 -35.5t143 -95.5t95.5 -143t35.5 -174t-35.5 -174t-95.5 -143t-143 -95.5t-174 -35.5zM743 340l-280 171l-4 2q-23 10 -47 10q-30 0 -47.5 -18.5t-17.5 -48.5v-325l1 -5q6 -17 22.5 -32.5t41.5 -15.5q18 0 37 10l277 157l3 2q10 7 17.5 19.5
t9.5 30t-9 35.5zM419 145q-4 -3 -7 -3q-1 1 -1 2v312v3q9 1 21 -4l257 -157z" />
    <glyph glyph-name="uniE614" unicode="&#xe614;" 
d="M511 144q44 0 75 34.5t31 83.5v324q0 49 -31 84t-75 35t-75 -35t-31 -84v-324q0 -49 31 -83.5t75 -34.5zM428 586q0 39 24.5 66t59 27t59 -27t24.5 -66v-324q0 -38 -24.5 -65.5t-59 -27.5t-59 27.5t-24.5 65.5v324zM649 424v-167q0 -64 -40.5 -109t-97.5 -45t-97.5 45
t-40.5 109v167h-23v-167q0 -71 43.5 -122.5t106.5 -56.5v-104h-84v-25h190v25h-84v104q63 5 106.5 56.5t43.5 122.5v167h-23zM928 153q4 -4 8 0q79 92 86 217q4 77 -21.5 148.5t-76.5 124.5q-5 4 -8.5 -0.5t0.5 -8.5q49 -51 74 -120t21 -143q-7 -121 -83 -209q-4 -5 0 -9z
M882 201q4 -4 8 0q72 83 69 198t-79 193q-4 4 -8 -0.5t0 -8.5q73 -75 75.5 -184.5t-65.5 -188.5q-4 -5 0 -9zM836 258q-4 -5 0 -9t8 0q53 62 51 148t-59 144q-4 5 -7.5 0.5t0.5 -9.5q53 -55 55 -135.5t-48 -138.5zM785 490.5q-4 -4.5 0 -8.5q34 -36 35.5 -87.5t-30.5 -88.5
q-4 -5 0 -9t8 0q35 41 33.5 98t-38.5 96q-4 4 -8 -0.5zM95 147q-4 -4 -8 0q-79 92 -86 217q-4 77 22 148.5t77 124.5q4 4 7.5 -0.5t-0.5 -8.5q-49 -51 -73.5 -120t-20.5 -143q6 -121 82 -209q4 -5 0 -9zM141 195q-4 -4 -8 0q-71 83 -68 197.5t78 193.5q4 4 8 -0.5t0 -8.5
q-72 -75 -75 -184.5t65 -188.5q4 -5 0 -9zM187 251q4 -4 0 -8.5t-8 0.5q-53 62 -51 147.5t59 144.5q4 4 8 -0.5t0 -8.5q-54 -55 -56 -135.5t48 -139.5zM238 484.5q4 -4.5 0 -9.5q-34 -35 -35.5 -86.5t31.5 -89.5q3 -4 -1 -8.5t-8 0.5q-35 41 -33.5 98t38.5 95q4 5 8 0.5z
" />
    <glyph glyph-name="uniE615" unicode="&#xe615;" 
d="M958 385q0 -91 -35.5 -173.5t-95.5 -142.5t-143.5 -95.5t-174.5 -35.5q-135 1 -247 75.5t-163 197.5q-36 86 -36 174q0 91 35.5 173.5t95.5 142.5t143.5 95.5t174.5 34.5q91 0 173.5 -35.5t142 -95.5t95 -142.5t35.5 -172.5zM727 435h-216h-216q-19 0 -36 -15
q-14 -15 -14 -35t14 -35q17 -15 36 -15h216h216q19 0 35 15q15 15 15 35t-15 35q-16 15 -35 15zM512 732q-95 1 -175.5 -45.5t-127 -127t-46.5 -174.5q0 -70 27 -135q40 -96 127 -154t192 -59q106 0 193.5 58t128.5 155q27 64 27 135t-27 135q-41 96 -127.5 154t-191.5 58z
" />
    <glyph glyph-name="uniE616" unicode="&#xe616;" 
d="M512 896q-104 0 -199 -40.5t-163.5 -109t-109 -163.5t-40.5 -199t40.5 -199t109 -163.5t163.5 -109t199 -40.5t199 40.5t163.5 109t109 163.5t40.5 199t-40.5 199t-109 163.5t-163.5 109t-199 40.5zM390 523q0 51 36 87q35 36 86 36t86.5 -36t35.5 -87v-119
q0 -50 -35.5 -86t-86.5 -36t-86 36l-2 1q-34 36 -34 85v119zM704 404q0 -39 -15 -73q-14 -35 -41 -62q-49 -49 -116 -56l-7 -1v-64h110q6 0 9.5 -4t3.5 -9t-3.5 -9t-9.5 -4h-246q-5 0 -9 4t-4 9t4 9t9 4h110v65l-7 1q-28 2 -53 13q-35 14 -63 42q-27 27 -41 62
q-15 36 -15 73v60q0 5 4 9t9 4t9 -4t4 -9v-60q0 -33 12 -63q13 -31 36.5 -54t54.5 -37q30 -12 63 -12q69 0 117 49q24 23 37 54q12 30 12 63v60q0 5 4 9t9 4t9 -4t4 -9v-60z" />
    <glyph glyph-name="uniE617" unicode="&#xe617;" 
d="M1506 592zM2500 592zM507 -122q-102 0 -195 40q-90 38 -159 107t-107 159q-40 93 -40 195t40 195q38 90 107 159t159 107q93 40 195 40t195 -40q90 -38 159 -107t107 -159q40 -93 40 -195t-40 -195q-38 -90 -107 -159t-159 -107q-93 -40 -195 -40zM507 799
q-114 0 -210.5 -56.5t-153 -153t-56.5 -210.5t56.5 -211t153 -153t210.5 -56t210.5 56t153 153t56.5 211t-56.5 210.5t-153 153t-210.5 56.5zM787 338h-560q-17 0 -29 12t-12 29t12 28.5t29 11.5h560q17 0 29 -11.5t12 -28.5t-12 -29t-29 -12z" />
    <glyph glyph-name="uniE618" unicode="&#xe618;" 
d="M512 -212q-104 0 -199 40.5t-163.5 109t-109 163.5t-40.5 199t40.5 199t109 163.5t163.5 109t199 40.5t199 -40.5t163.5 -109t109 -163.5t40.5 -199t-40.5 -199t-109 -163.5t-163.5 -109t-199 -40.5zM512 780q-98 0 -186.5 -38t-153 -102.5t-102.5 -153t-38 -186.5
t38 -186.5t102.5 -153t153 -102.5t186.5 -38t186.5 38t153 102.5t102.5 153t38 186.5t-38 186.5t-102.5 153t-153 102.5t-186.5 38zM640 97h-21q-18 0 -30.5 12.5t-12.5 30.5v320q0 18 12.5 30.5t30.5 12.5h21q18 0 30.5 -12.5t12.5 -30.5v-320q0 -18 -12.5 -30.5
t-30.5 -12.5zM405 97h-21q-18 0 -30.5 12.5t-12.5 30.5v320q0 18 12.5 30.5t30.5 12.5h21q18 0 30.5 -12.5t12.5 -30.5v-320q0 -18 -12.5 -30.5t-30.5 -12.5z" />
    <glyph glyph-name="uniE619" unicode="&#xe619;" horiz-adv-x="1030" 
d="M512 896q-104 0 -199 -40.5t-163.5 -109t-109 -163.5t-40.5 -199t40.5 -199t109 -163.5t163.5 -109t199 -40.5q139 0 257 68.5t186.5 186.5t68.5 257t-68.5 257t-186.5 186.5t-257 68.5zM512 -63q-91 0 -173.5 35.5t-142.5 95.5t-95.5 142.5t-35.5 173.5t35.5 173.5
t95.5 142.5t142.5 95.5t173.5 35.5t173.5 -35.5t142.5 -95.5t95.5 -142.5t35.5 -173.5t-35.5 -173.5t-95.5 -142.5t-142.5 -95.5t-173.5 -35.5zM365 567h86v-385h-86v385zM537 567h107v-385h-107v385z" />
    <glyph glyph-name="uniE61A" unicode="&#xe61a;" 
d="M741 285zM896 108l-8 16l-112 224q-8 16 -26 16h-93q-7 0 -12 -5.5t-5 -12.5v-29q0 -8 5 -13t12 -5h30q17 0 25 -15l80 -161q3 -7 0 -11.5t-10 -4.5h-126q-8 0 -13 -5t-5 -12v-91q0 -7 -5 -12.5t-12 -5.5h-219q-7 0 -12.5 5.5t-5.5 12.5v91q0 7 -5 12t-12 5h-129
q-7 0 -10 4.5t1 11.5l83 161q8 15 25 15h29q7 0 12 5.5t5 12.5v29q0 7 -5 12t-12 5h-93q-17 0 -25 -15l-113 -225q-2 -4 -3.5 -7.5t-2.5 -5.5l-1 -2v-18v-158q0 -7 5 -12t12 -5h734q7 0 12 5t5 12v159v17zM353 488h95v-315h128v315h101q7 0 8.5 4t-3.5 9l-158 179
q-5 5 -11.5 5t-11.5 -5l-155 -179q-4 -5 -2.5 -9t9.5 -4z" />
    <glyph glyph-name="uniE61B" unicode="&#xe61b;" 
d="M512 747q-91 0 -173.5 -35.5t-142.5 -95t-95.5 -142.5t-35.5 -174t35.5 -173.5t95.5 -142.5t142.5 -95t173.5 -35t173.5 35t142.5 95t95.5 142.5t35.5 173.5t-35.5 174t-95.5 142.5t-142.5 95t-173.5 35.5zM533 311q-2 -1 -3 -2v-5v-238q0 -19 -13 -23h-10q-13 4 -13 23
q1 211 1 238v5q-1 1 -3 2q-2 -4 -3 -5q-15 -14 -38 -37q-10 -10 -22 -4t-10 18q1 8 5 12q27 27 74 73q14 14 28 0q36 -36 74 -73q14 -13 0.5 -26t-26.5 0q-22 20 -38 37q-1 1 -3 5zM812 272q0 -2 -2 -12q-8 -31 -33 -51t-57 -20h-132q-8 0 -14 5t-5.5 13.5t6 13.5t14.5 5
h130q20 0 35 12t19 31q6 25 -10 46t-42 22q-11 1 -16 6t-5 16q-2 62 -42.5 107.5t-101.5 54.5q-57 8 -108 -18.5t-74 -77.5q-5 -10 -12 -34q-4 -17 -21 -17q-28 0 -37 -3q-26 -7 -41 -28.5t-13 -47.5t20 -45t44 -23q6 -1 14 -1h54h54q18 0 20 -16q1 -8 -4.5 -14.5
t-14.5 -6.5h-119q-39 1 -69.5 29t-35.5 68l-1 1v2v23q0 2 3 12q9 38 39 62.5t70 24.5h4l6 18q41 100 147 124q118 27 202 -60q46 -48 53 -116q0 -4 5 -5q60 -17 70 -78q0 -1 1 -2v-20z" />
    <glyph glyph-name="uniE61C" unicode="&#xe61c;" 
d="M396 888h-2q-57 -1 -97.5 -41.5t-41.5 -97.5q0 -53 33 -92h-135q-63 0 -108 -45t-45 -108v-170q0 -22 21 -28t33 13q28 45 81 45q40 0 68.5 -29t27.5 -69q0 -39 -28 -66.5t-66 -28.5q-54 -1 -83 45q-12 19 -33 13t-21 -28v-168q0 -63 45 -108t108 -45h177q21 0 27 21
t-12 33q-45 28 -45 81q0 41 29 69q28 28 67 28h2q38 -1 66 -28.5t28 -66.5q1 -54 -45 -83q-18 -12 -12 -33t28 -21h177q63 0 107.5 45t44.5 108v126q40 -32 91 -32q59 0 100.5 42t40.5 101q-1 56 -41.5 96.5t-97.5 41.5q-53 1 -93 -32v128q0 63 -44.5 108t-107.5 45h-135
q32 39 32 90q0 59 -42 100q-41 41 -99 41zM45 376v128q0 45 31.5 76.5t76.5 31.5h177q21 0 27 21t-12 32q-46 29 -45 83q1 39 28.5 66.5t66.5 28.5q40 0 68.5 -28t28.5 -68q0 -53 -45 -82q-18 -11 -12 -32t28 -21h177q44 0 76 -32t32 -76v-170q0 -22 21 -28t32 12
q29 46 83 45q39 0 67 -28t28 -66q1 -41 -27.5 -69.5t-68.5 -28.5q-53 0 -82 45q-11 19 -32 12.5t-21 -27.5v-168q0 -45 -32 -76.5t-76 -31.5h-135q33 40 32 92q-1 57 -41 98q-41 40 -98 41h-2q-58 0 -99 -41q-42 -41 -42 -100q0 -51 33 -90h-135q-45 0 -76.5 31.5
t-31.5 76.5v126q40 -33 92 -32q57 1 97.5 41.5t41.5 96.5q1 59 -40.5 101t-100.5 42q-51 0 -90 -32zM45 376z" />
  </font>
</defs>
</svg>
